<svg viewBox="0 0 800 800" fill="none" xmlns="http://www.w3.org/2000/svg">
  <!-- Background -->
  <rect width="800" height="800" fill="#FFF0E8"/>
  <circle cx="710" cy="105" r="165" fill="#FFD9C0" opacity="0.45"/>
  <circle cx="75" cy="710" r="148" fill="#F0E0D8" opacity="0.45"/>

  <!-- Floor -->
  <rect x="0" y="682" width="800" height="118" fill="#E8D8CC"/>
  <rect x="0" y="680" width="800" height="5" fill="#D8C8BC"/>
  <!-- Rug -->
  <ellipse cx="400" cy="702" rx="220" ry="30" fill="#D4B8A8" opacity="0.55"/>
  <ellipse cx="400" cy="702" rx="195" ry="24" fill="#C8A898" opacity="0.4"/>

  <!-- WARDROBE (left) -->
  <rect x="18" y="182" width="168" height="502" rx="10" fill="#C8A882"/>
  <rect x="18" y="182" width="168" height="502" rx="10" stroke="#B09070" stroke-width="4"/>
  <rect x="22" y="186" width="76" height="490" rx="7" fill="#D4B898"/>
  <rect x="102" y="186" width="80" height="490" rx="7" fill="#D4B898"/>
  <!-- Door handles -->
  <rect x="88" y="424" width="9" height="30" rx="4" fill="#C4A050"/>
  <rect x="107" y="424" width="9" height="30" rx="4" fill="#C4A050"/>
  <!-- Hanging clothes -->
  <rect x="28" y="192" width="76" height="68" rx="5" fill="#DDD0C0"/>
  <path d="M42 196 Q54 188 66 196" stroke="#8B6BA8" stroke-width="14" stroke-linecap="round" fill="none"/>
  <path d="M78 196 Q90 188 102 196" stroke="#D95A41" stroke-width="14" stroke-linecap="round" fill="none"/>
  <line x1="54" y1="196" x2="54" y2="252" stroke="#8B6BA8" stroke-width="14" stroke-linecap="round"/>
  <line x1="90" y1="196" x2="90" y2="254" stroke="#D95A41" stroke-width="14" stroke-linecap="round"/>
  <!-- Small wardrobe mirror -->
  <ellipse cx="102" cy="385" rx="42" ry="62" fill="#D8EEF8" opacity="0.65"/>
  <ellipse cx="102" cy="385" rx="42" ry="62" fill="none" stroke="#B09070" stroke-width="4"/>

  <!-- LARGE MIRROR frame (gold oval) -->
  <ellipse cx="390" cy="405" rx="152" ry="225" fill="#F5C842"/>
  <ellipse cx="390" cy="405" rx="152" ry="225" fill="none" stroke="#E8A820" stroke-width="6"/>
  <ellipse cx="390" cy="405" rx="142" ry="215" fill="#F8D458"/>
  <ellipse cx="390" cy="405" rx="142" ry="215" fill="none" stroke="#E0A010" stroke-width="3" opacity="0.55"/>
  <!-- Mirror glass -->
  <ellipse cx="390" cy="405" rx="130" ry="202" fill="#E8F4FA"/>
  <!-- Glass sheen -->
  <ellipse cx="342" cy="278" rx="28" ry="62" fill="white" opacity="0.28" transform="rotate(-14 342 278)"/>

  <!-- REFLECTION in mirror (slightly muted) -->
  <!-- Reflection legs -->
  <path d="M365 592 L357 674" stroke="#C09070" stroke-width="24" stroke-linecap="round" opacity="0.82"/>
  <path d="M415 592 L423 674" stroke="#C09070" stroke-width="24" stroke-linecap="round" opacity="0.82"/>
  <!-- Reflection shoes -->
  <ellipse cx="352" cy="680" rx="19" ry="9" fill="#9A6840" opacity="0.82"/>
  <ellipse cx="428" cy="680" rx="19" ry="9" fill="#9A6840" opacity="0.82"/>
  <!-- Reflection skirt -->
  <path d="M350 494 Q342 538 345 592 L448 592 Q451 538 443 494Z" fill="#5E9BAA" opacity="0.82"/>
  <!-- Reflection top -->
  <rect x="348" y="400" width="88" height="100" rx="28" fill="#8A9098" opacity="0.82"/>
  <!-- Reflection neck -->
  <rect x="380" y="375" width="22" height="30" rx="7" fill="#D4907A" opacity="0.82"/>
  <!-- Reflection head -->
  <ellipse cx="391" cy="354" rx="40" ry="42" fill="#D4907A" opacity="0.82"/>
  <!-- Reflection hair -->
  <path d="M353 338 Q357 296 391 296 Q425 296 429 338" fill="#4A3020" opacity="0.82"/>
  <path d="M354 338 Q338 365 342 445" stroke="#4A3020" stroke-width="24" stroke-linecap="round" fill="none" opacity="0.82"/>
  <path d="M428 338 Q444 365 440 445" stroke="#4A3020" stroke-width="24" stroke-linecap="round" fill="none" opacity="0.82"/>
  <!-- Reflection arm (hand on hip) -->
  <path d="M348 440 Q330 464 334 494" stroke="#D4907A" stroke-width="16" stroke-linecap="round" opacity="0.82"/>
  <!-- Reflection arm up -->
  <path d="M436 434 Q456 452 452 484" stroke="#D4907A" stroke-width="16" stroke-linecap="round" opacity="0.82"/>

  <!-- MAIN PERSON standing -->
  <!-- Legs -->
  <path d="M494 602 L485 716" stroke="#C8844A" stroke-width="30" stroke-linecap="round"/>
  <path d="M552 602 L562 716" stroke="#C8844A" stroke-width="30" stroke-linecap="round"/>
  <!-- Heeled shoes -->
  <ellipse cx="479" cy="723" rx="23" ry="11" fill="#8B3A2A"/>
  <line x1="479" y1="722" x2="470" y2="742" stroke="#8B3A2A" stroke-width="6" stroke-linecap="round"/>
  <ellipse cx="568" cy="723" rx="23" ry="11" fill="#8B3A2A"/>
  <line x1="568" y1="722" x2="577" y2="742" stroke="#8B3A2A" stroke-width="6" stroke-linecap="round"/>
  <!-- Flowy skirt (teal) -->
  <path d="M464 494 Q454 548 458 602 L574 602 Q578 548 568 494Z" fill="#2A8A8A"/>
  <!-- Skirt flow lines -->
  <path d="M468 514 Q464 556 466 596" stroke="#228080" stroke-width="3" fill="none" opacity="0.45"/>
  <path d="M516 508 Q514 552 516 596" stroke="#228080" stroke-width="3" fill="none" opacity="0.45"/>
  <path d="M562 514 Q566 558 564 596" stroke="#228080" stroke-width="3" fill="none" opacity="0.45"/>
  <!-- Tucked blouse (ivory) -->
  <rect x="462" y="382" width="108" height="120" rx="36" fill="#F5EDD8"/>
  <!-- Belt -->
  <rect x="460" y="494" width="112" height="14" rx="7" fill="#8B3A2A"/>
  <rect x="505" y="489" width="22" height="24" rx="5" fill="#C4601A"/>
  <!-- Neck -->
  <rect x="501" y="350" width="28" height="40" rx="10" fill="#E8956D"/>
  <!-- Head -->
  <ellipse cx="515" cy="318" rx="54" ry="56" fill="#E8956D"/>
  <!-- Hair — long dark -->
  <path d="M462 296 Q466 236 515 236 Q564 236 568 296 Q550 264 515 260 Q480 264 462 296Z" fill="#2D1B0E"/>
  <path d="M464 296 Q446 364 450 448" stroke="#2D1B0E" stroke-width="30" stroke-linecap="round" fill="none"/>
  <path d="M566 296 Q584 364 580 448" stroke="#2D1B0E" stroke-width="30" stroke-linecap="round" fill="none"/>
  <!-- Ears -->
  <ellipse cx="462" cy="320" rx="11" ry="14" fill="#D4784A"/>
  <ellipse cx="568" cy="320" rx="11" ry="14" fill="#D4784A"/>
  <!-- Dangly earrings -->
  <line x1="462" y1="332" x2="462" y2="354" stroke="#F5C842" stroke-width="3"/>
  <circle cx="462" cy="358" r="7" fill="#F5C842"/>
  <line x1="568" y1="332" x2="568" y2="354" stroke="#F5C842" stroke-width="3"/>
  <circle cx="568" cy="358" r="7" fill="#F5C842"/>
  <!-- Eyes (looking at mirror) -->
  <circle cx="499" cy="312" r="7" fill="#2D1B0E"/>
  <circle cx="531" cy="312" r="7" fill="#2D1B0E"/>
  <circle cx="501" cy="309" r="2.5" fill="white"/>
  <circle cx="533" cy="309" r="2.5" fill="white"/>
  <!-- Eyebrows (arched, pleased) -->
  <path d="M484 297 Q499 288 514 294" stroke="#2D1B0E" stroke-width="4" fill="none" stroke-linecap="round"/>
  <path d="M516 294 Q531 288 546 297" stroke="#2D1B0E" stroke-width="4" fill="none" stroke-linecap="round"/>
  <!-- Confident smile -->
  <path d="M500 332 Q515 347 530 332" stroke="#2D1B0E" stroke-width="3.5" fill="none" stroke-linecap="round"/>
  <!-- Arm — hand on hip -->
  <path d="M462 428 Q440 458 446 494" stroke="#E8956D" stroke-width="21" stroke-linecap="round"/>
  <circle cx="448" cy="497" r="14" fill="#E8956D"/>
  <!-- Arm — slightly raised -->
  <path d="M570 418 Q602 398 596 362" stroke="#E8956D" stroke-width="21" stroke-linecap="round"/>
  <circle cx="595" cy="358" r="14" fill="#E8956D"/>

  <!-- Decorative plant (right) -->
  <rect x="682" y="562" width="42" height="62" rx="8" fill="#8B6040"/>
  <rect x="682" y="557" width="42" height="14" rx="7" fill="#A07850"/>
  <ellipse cx="703" cy="522" rx="36" ry="46" fill="#5BA058"/>
  <ellipse cx="682" cy="532" rx="26" ry="36" fill="#4A9050"/>
  <ellipse cx="724" cy="530" rx="26" ry="38" fill="#68A860"/>

  <!-- Accent dots -->
  <circle cx="722" cy="665" r="14" fill="#D95A41" opacity="0.35"/>
  <circle cx="58" cy="162" r="12" fill="#2A8A8A" opacity="0.35"/>
  <circle cx="682" cy="302" r="9" fill="#F5C842" opacity="0.5"/>
</svg>
